<mxfile host="app.diagrams.net" modified="2024-05-21T08:20:23.730Z" agent="Mozilla/5.0 (Windows NT 10.0; Win64; x64) AppleWebKit/537.36 (KHTML, like Gecko) Chrome/124.0.0.0 Safari/537.36" version="23.1.5" etag="36oN_uV7RLxGUON_RUom" type="github">
  <diagram name="Страница — 1" id="feJYffyxVQz-zG-ypwNW">
    <mxGraphModel>
      <root>
        <mxCell id="0" />
        <mxCell id="1" parent="0" />
      </root>
    </mxGraphModel>
  </diagram>
</mxfile>
